<?xml version="1.0" encoding="utf-8"?>
<!-- Generator: Adobe Illustrator 28.1.0, SVG Export Plug-In . SVG Version: 6.00 Build 0)  -->
<svg version="1.1" id="Layer_1" xmlns="http://www.w3.org/2000/svg" xmlns:xlink="http://www.w3.org/1999/xlink" x="0px" y="0px"
	 viewBox="0 0 400 360" style="enable-background:new 0 0 400 360;" xml:space="preserve">
<style type="text/css">
	.st0{fill:#FFFFFF;}
	.st1{font-family:'Arial-BoldMT';}
	.st2{font-size:20px;}
	.st3{fill:none;stroke:#000000;stroke-width:5;stroke-miterlimit:10;}
</style>
<rect id="Decoration" y="240" width="400" height="120"/>
<text transform="matrix(1 0 0 1 14.3125 271.434)" class="st0 st1 st2">Name: Leaf</text>
<text transform="matrix(1 0 0 1 14.3125 294.434)" class="st0 st1 st2">Difficulty: Easy</text>
<path class="st3" d="M311.4,211.2L311.4,211.2c-8.9-12.8-18.3-25.1-28.3-36.9c-10-11.8-20.6-23.1-31.7-33.7
	c-21.3-20.2-44.7-38.1-70.4-51.6c43.8,11.7,99.9,60.2,99.9,60.2c0.7-42.8-8.1-77-45.1-97.5c-35.4-19.7-70.6-21.4-111.6-22.9
	c-28.2-1-47.8-10.3-47.8-10.3c6.6,33.3,18,104.1,65.2,139.5c49.3,36.9,111.5,20.8,119.1,18.6c2.1,3.2,4.3,6.3,6.3,9.5
	c8,12.5,15.3,25.2,22.1,38.4c0.2,0.5,0.6,1,0.9,1.5c4.1,5.9,12.2,7.4,18.1,3.3c0.4-0.2,0.7-0.5,1-0.8
	C314.1,224.3,315.2,216.8,311.4,211.2z"/>
</svg>
